<svg id="Layer_1" xmlns="http://www.w3.org/2000/svg" viewBox="0 0 405.4 371.1">
    <style>
        .st0{fill:#070707}.st1{fill:none;stroke:#070707;stroke-width:1.5;stroke-miterlimit:10}
    </style>
    <path class="st0" d="M362.5 41C351.7 21.3 332 9 310.7 3.3c-26.3-7.1-54.2-.9-80.7 1.6C205.6 7.2 184.1 21 170.6 41c-11.9 17.6-16.3 39.1-17.8 60-1.3 17.5-.3 35.2.9 52.7 1.5 21.5 2.9 42.8 2.1 64.4-.9 23.8-5.3 48-1.8 71.7 2.9 20.1 12.6 38.2 26.4 52.9 1.1 1.2 2.9-.6 1.8-1.8-9.6-10.2-17-21.9-21.6-35.1-4.9-13.8-5.7-28.2-5.1-42.7.6-16.4 2.5-32.7 3-49.1.5-14.6 0-29.1-1-43.6-3-42.9-9.4-92.9 16.7-130.3 10.2-14.7 25.5-25.3 42.6-30.3 9.8-2.8 20.1-3.1 30.2-4.2 10.7-1.1 21.3-2.4 32-3.1 31-2.1 65.9 11.5 81.4 39.6.6 1.6 2.8.3 2.1-1.1zM202.7 356.9c19.2 11.9 43.7 11.7 65.5 9.9 11-.9 21.9-2.6 32.8-4.5 11.7-2 24.8-3 35.1-9.4 1.4-.9.1-3-1.3-2.2-9.7 6.1-22.1 7-33.2 9-11.1 1.9-22.2 3.6-33.4 4.6-21.3 1.9-45.4 2-64.2-9.5-1.4-.9-2.7 1.3-1.3 2.1z"/>
    <path class="st0" d="M228.6 7.5c1.6 0 1.6-2.5 0-2.5s-1.6 2.5 0 2.5zM158 70.3c-7.5-2.3-14.3-4.6-18.7-11.7-4.8-7.8-2.5-18 2.8-24.7 4.1-5.2 10.3-8.3 16.7-9.7 4.1-.9 8.7-.7 12.8-.2 4.1.6 6.4 3.1 9.6 5.2 1.3.9 2.6-1.3 1.3-2.2-1.9-1.3-3.1-2.9-5.2-4-2-1.1-4.4-1.4-6.6-1.7-4.2-.6-8.5-.3-12.6.4-7.9 1.4-15 6.2-19.6 12.7-4.7 6.6-5.9 16.6-2.2 23.9 4.4 8.6 12.1 11.6 20.9 14.3 1.6.5 2.3-1.9.8-2.3zm188.8-47c12.2-6.2 31-9.3 39.8 3.7 8.9 13.1 3.4 34.4-13.4 37.3-1.6.3-.9 2.7.7 2.4 18.1-3.1 23.2-24 16.2-38.8-8-16.9-30.7-14-44.5-6.9-1.5.9-.3 3.1 1.2 2.3zm-96 66.3l1-.2-.3-1.2c-1.3.7-2.8.6-4.1 1.4-2.3 1.4-4.4 3.1-6.4 4.9-2.7 2.5-6.5 7-5.4 11.1 1.3 4.8 6.5 7.1 11 7.7 7.4 1.1 14.7-3.4 21.9-3.8 8.8-.5 23 9.6 25.9-4.6 2-10-11.8-15.9-19-18.6-.8-.3-1.1.9-.3 1.2 7.1 2.6 18 7.2 18.2 16.1.4 13.8-17.7 4.8-24.8 4.6-4.4-.1-9 1.7-13.2 2.9-5.9 1.6-17.6 1.8-18.6-6.6-.5-4.2 4-8.3 6.9-10.7 2.8-2.4 5.4-2.9 8.5-4.6.5-.3.3-1.2-.3-1.2-.5 0-.9.1-1.4.2-.7.4-.3 1.6.4 1.4z"/>
    <path class="st0" d="M278.7 111.8c1.5 3.8 1.9 8.1 1.8 12.2-.1 2.6-.6 5.5-2.4 7.5-3.3 3.7-11.8 1.3-10.8-4.3.1-.8-1.1-1.1-1.2-.3-1.2 7.2 8.3 9.4 12.9 5.5 5-4.2 3-15.7 1-20.8-.3-.8-1.5-.5-1.3.2zM181.6 343c10.2-5.2 15.7 7.8 22.7 12.7l.1-1.1c-5.4.8-9.9 4.3-14.1 7.5-5.2 3.9-11.9 10-18.9 7.1-9.1-3.9-6.3-12.6-.8-17.9 4.1-4 9.2-7 14.3-9.5.7-.4.1-1.4-.6-1.1-7.3 3.7-27.4 15.2-18.1 25.8 12.6 14.4 25.9-8.6 38.6-10.6.6-.1.5-.9.1-1.1-7.7-5.3-12.9-18.3-24-12.7-.7.2-.1 1.3.7.9z"/>
    <path class="st0" d="M169.9 367.6c-1.7-6 2.8-10.7 7.7-13.3.7-.4.1-1.5-.6-1.1-5.5 2.9-10.2 8.2-8.3 14.7.2.8 1.4.4 1.2-.3zm164.7-14.3c4.1-10 15.6-18 25.8-11.7 5.7 3.5 9.3 10.6 10 17.1.7 7.9-4.9 11.4-12.2 9.8-9.1-2-13.9-12.9-21.2-18-.7-.5-1.3.6-.6 1.1 9.2 6.3 14.3 19.5 27.1 18.6 6.9-.5 8.7-7.4 7.9-13.2-1-7.6-6.3-15-13.4-18.1-10.2-4.4-21 5-24.6 14-.2.9 1 1.2 1.2.4z"/>
    <path class="st0" d="M358.3 353.6c3.9 4 7 9.2 7.2 14.9 0 .8 1.3.8 1.2 0-.2-6.1-3.4-11.5-7.5-15.8-.6-.6-1.5.3-.9.9zm21.3-172.8c7.4.6 14.1 1.1 19.9 6.3 3.7 3.4 7.2 12.5 2.1 16.3-6 4.4-16.7-3-20.4-7.5-.5-.6-1.4.3-.9.9 4.3 5.3 17.4 13.5 23.4 6.3 3.3-4 1-11-1.5-14.7-5-7.5-14.5-8.3-22.6-8.9-.8 0-.8 1.3 0 1.3z"/>
    <path class="st0" d="M393.2 195.7c3.9 1.2 8.6 4.5 6.3 9.1-.4.7.7 1.4 1.1.6 2.8-5.4-2.3-9.5-7-10.9-.8-.3-1.1.9-.4 1.2z"/>
    <path class="st1" d="M343 53.6c0-19.2-15.5-34.7-34.7-34.7-19.2 0-34.7 15.5-34.7 34.7 0 19.2 15.5 34.7 34.7 34.7 19.2-.1 34.7-15.6 34.7-34.7zm-87.4 3.6c0-19.2-15.5-34.7-34.7-34.7S186.2 38 186.2 57.2c0 19.2 15.5 34.7 34.7 34.7 19.2 0 34.7-15.5 34.7-34.7z"/>
    <path class="st0" d="M374.7 39.8c0-4.1-3.3-7.3-7.3-7.3-4.1 0-7.3 3.3-7.3 7.3 0 4.1 3.3 7.3 7.3 7.3 4 .1 7.3-3.2 7.3-7.3zM169.3 46c0-4.1-3.3-7.3-7.3-7.3s-7.3 3.3-7.3 7.3c0 4.1 3.3 7.3 7.3 7.3s7.3-3.3 7.3-7.3zm111.1 39.6c0-4.8-7-8.6-15.5-8.6-8.6 0-15.5 3.8-15.5 8.6 0 4.7 7 8.6 15.5 8.6s15.5-3.9 15.5-8.6zm9.7-41.3c-6.3 0-11.3 5.1-11.3 11.3 0 6.3 5.1 11.3 11.3 11.3 6.3 0 11.3-5.1 11.3-11.3s-5-11.3-11.3-11.3zm4.6 18.5c-1.8 0-3.2-1.4-3.2-3.2 0-1.8 1.4-3.2 3.2-3.2 1.8 0 3.2 1.4 3.2 3.2 0 1.8-1.5 3.2-3.2 3.2zM202.1 47c-6.3 0-11.3 5.1-11.3 11.3 0 6.3 5.1 11.3 11.3 11.3 6.3 0 11.3-5.1 11.3-11.3 0-6.2-5.1-11.3-11.3-11.3zm4.6 18.5c-1.8 0-3.2-1.4-3.2-3.2 0-1.8 1.4-3.2 3.2-3.2s3.2 1.4 3.2 3.2c0 1.8-1.5 3.2-3.2 3.2zm58.9 44.3c.7 6.7 2.1 16.3-2.4 22-4.1 5.2-10.2-.4-11.4-4.9-1.2-4.6-.5-9.9.8-14.4.2-.8-1-1.1-1.2-.3-2.2 7.5-2.9 25 9.6 22.5 8.9-1.8 6.5-18.8 5.9-24.8-.2-.9-1.4-.9-1.3-.1zm-108.7 73.8c-6.5-1.2-12.5 1.1-17.9 4.5-.7.4-.1 1.5.6 1.1 5.1-3.2 10.8-5.5 16.9-4.4.9.2 1.2-1 .4-1.2zm-4.9 19.7c1.9-1.4 3.4-3.3 5.3-4.8.6-.5 0-1.6-.6-1.1-1.9 1.4-3.4 3.3-5.3 4.8-.7.5-.1 1.6.6 1.1z"/>
    <path class="st0" d="M358.5 38.3c13.4 19.6 16.9 43.4 17.9 66.6 1 24.3-.2 48.6.8 72.8 1.2 28.5 3.6 57 3.2 85.5-.2 14.4-1.6 28.6-5.5 42.5-3.4 12.1-11.6 21.3-17.5 32.1-.8 1.4 1.4 2.7 2.2 1.3 5.6-10.5 13.5-19.4 17.2-30.9 4.2-13.3 5.7-27.2 6.1-41.1.9-29.8-1.8-59.6-3.1-89.4-1.1-25.3.2-50.7-1-76-1.1-22.6-5.1-45.8-18.1-64.8-.9-1.2-3.1 0-2.2 1.4z"/>
    <path class="st1" d="M126.9 199.4C85.3 145.8 43.6 92.6.6 38.7c11.7 12.7 5.4 6.9 0 0 14.2 13.6 25.7 28 40.1 42.4 38.8 43.2 77.7 82 114.2 125.5"/>
    <path class="st0" d="M120.2 190.5c5.6.1 10.3-4.5 11.6-9.8.2-.8-1-1.1-1.2-.3-1.1 4.7-5.3 9-10.4 8.9-.8-.1-.8 1.2 0 1.2zm21 28.3c3 3.8 8.1-.9 10.3-3.2 1.6-1.6 7.6-7.8 3.6-9.6-.7-.3-1.4.8-.6 1.1 2.5 1.1-3 6.8-3.8 7.6-1.7 1.8-6.2 6.2-8.6 3.2-.5-.6-1.4.3-.9.9z"/>
    <path class="st0" d="M142.1 218.6c2.9 0 5.3-2.4 7.1-4.3 2.1-2.2 4.1-4.8 5.1-7.7.3-.8-.9-1.1-1.2-.3-.9 2.5-2.7 4.7-4.4 6.7-1.6 1.8-4 4.4-6.6 4.4-.9-.1-.9 1.2 0 1.2zm-.3-12.1c-.9-.8-1.8-1.2-2.9-1.6-2.4-.9-3.1-2.1-4.6-3.9-1.8-2.2-3.8-3.3-6.7-2.9-2.2.4-3 2.6-3 4.5 0 3.1 2.5 5.1 4.5 7.1 2.2 2.1 2.5 5.6 5.3 7.1 1.6.9 3.6.3 5.1-.5 3.8-1.9 5.1-6.6 2.3-9.8-.5-.6-1.4.3-.9.9 2.7 3.2.2 7.3-3.3 8.5-2.1.7-3.7-.7-4.6-2.5-.9-1.8-1.5-3.1-2.9-4.6-1.8-2-3.8-3.2-4.2-6.2-.6-4.7 5-3.6 7-1.4 1 1.1 1.6 2.9 2.9 3.7 1.6 1 3.6 1.2 5 2.5.8.5 1.7-.3 1-.9z"/>
    <path class="st0" d="M139.3 216.6c.5.9 1.3 1.7 2.1 2.3.7.5 1.3-.6.6-1.1-.7-.5-1.3-1.1-1.7-1.8-.3-.7-1.3-.1-1 .6zm-6-10.2c.9-.7 1.8-1.3 3-1 .8.2 1.1-1 .3-1.2-1.5-.4-2.8.3-4 1.1-.6.5 0 1.6.7 1.1z"/>
</svg>
